<?xml version="1.0" standalone="no"?>
<!DOCTYPE svg PUBLIC "-//W3C//DTD SVG 20010904//EN"
 "http://www.w3.org/TR/2001/REC-SVG-20010904/DTD/svg10.dtd">
<svg version="1.0" xmlns="http://www.w3.org/2000/svg"
 width="250.000000pt" height="250.000000pt" viewBox="0 0 250.000000 250.000000"
 preserveAspectRatio="xMidYMid meet">
<metadata>
Created by potrace 1.14, written by Peter Selinger 2001-2017
</metadata>
<g transform="translate(0.000000,250.000000) scale(0.100000,-0.100000)"
fill="#000000" stroke="none">
<path d="M995 2480 c-429 -91 -781 -397 -929 -808 -90 -252 -90 -592 0 -844
126 -351 411 -636 762 -762 252 -90 592 -90 844 0 351 126 636 411 762 762 90
252 90 592 0 844 -126 351 -411 636 -762 762 -40 14 -117 35 -171 46 -134 27
-376 27 -506 0z m540 -317 c170 -57 257 -111 392 -243 84 -83 145 -171 201
-290 60 -127 82 -230 82 -374 0 -271 -97 -503 -287 -687 -133 -130 -269 -204
-466 -255 -91 -24 -114 -26 -236 -22 -148 6 -254 30 -379 88 -130 61 -266 172
-359 294 -128 169 -208 459 -184 669 45 395 311 710 696 824 108 33 112 33
280 30 158 -3 176 -6 260 -34z"/>
<path d="M1132 2139 c-88 -11 -164 -34 -257 -79 -100 -47 -159 -90 -253 -182
-169 -167 -262 -383 -262 -609 l0 -79 30 0 c23 0 44 -12 81 -47 45 -42 50 -51
48 -84 -2 -24 3 -44 13 -56 29 -32 38 -68 27 -108 -8 -30 -18 -40 -50 -54 -21
-9 -39 -21 -39 -26 0 -14 121 -173 158 -208 l30 -29 41 26 c26 17 41 34 41 47
0 11 12 32 26 46 18 18 22 29 15 36 -14 14 -14 63 0 89 11 20 12 19 33 -18 33
-60 126 -114 126 -74 0 5 -18 19 -40 30 -41 21 -80 71 -80 103 0 14 5 16 25
11 29 -7 31 0 8 52 -11 27 -16 66 -15 122 1 75 -1 83 -16 77 -9 -4 -37 -10
-62 -12 -82 -9 -148 59 -155 159 l-3 53 -39 6 c-96 14 -138 76 -113 170 12 44
63 92 117 109 49 16 63 28 63 54 0 113 103 195 209 166 23 -6 48 -13 55 -16 9
-3 15 7 19 31 10 64 42 101 119 140 81 40 132 44 236 20 82 -20 115 -37 148
-80 73 -96 15 -232 -108 -251 -21 -4 -38 -8 -38 -11 0 -2 18 -21 40 -42 34
-32 40 -44 40 -79 0 -32 -6 -45 -26 -61 -15 -12 -35 -21 -45 -21 -11 0 -19 -3
-19 -6 0 -20 73 -102 117 -130 132 -84 187 -263 133 -425 -23 -68 -20 -78 31
-99 23 -10 39 -10 68 -1 51 15 51 15 41 -20 -12 -42 -28 -59 -75 -80 -51 -23
-106 -23 -172 0 -51 17 -55 17 -105 0 -65 -22 -158 -24 -224 -4 -57 17 -73 8
-56 -30 6 -14 9 -38 6 -55 -5 -23 0 -38 23 -67 16 -21 53 -73 82 -116 l53 -77
70 0 c38 0 101 5 139 12 58 9 69 14 63 27 -3 9 -8 34 -11 57 -7 55 25 93 84
101 29 4 47 13 57 28 12 18 28 24 78 29 75 8 115 -4 128 -39 5 -14 13 -25 18
-25 14 0 155 150 191 202 51 76 109 206 132 297 19 74 21 104 16 245 -5 185
-16 226 -99 379 -187 344 -536 526 -916 476z m392 -823 c54 -23 96 -98 81
-145 -7 -23 -37 -28 -52 -8 -5 6 -16 28 -23 47 -22 57 -60 102 -81 97 -11 -3
-19 -1 -19 3 0 8 21 16 48 19 7 0 28 -5 46 -13z"/>
</g>
</svg>
